<?xml version="1.0" encoding="utf-8"?>
<!-- Generator: Adobe Illustrator 22.1.0, SVG Export Plug-In . SVG Version: 6.00 Build 0)  -->
<svg version="1.1" id="Layer_1" xmlns="http://www.w3.org/2000/svg" xmlns:xlink="http://www.w3.org/1999/xlink" x="0px" y="0px"
	 viewBox="0 0 171.2 171.2" style="enable-background:new 0 0 171.2 171.2;" xml:space="preserve">
<style type="text/css">
	.st0{fill:#2F67B2;}
	.st1{fill:#FFFFFF;}
        .st2{fill:#fcc800;}
        .border{stroke:#ffffff; stroke-width:0}
    
</style>
<path id="XMLID_12_" class="st0 border"  d="M171.2,85.6c0,47.3-38.3,85.6-85.6,85.6C38.3,171.2,0,132.9,0,85.6S38.3,0,85.6,0
	C132.9,0,171.2,38.3,171.2,85.6"/>
<g>
	<polygon class="st2" points="50.7,135.4 53.3,143.4 61.8,143.4 54.9,148.4 57.6,156.5 50.7,151.5 43.8,156.5 46.5,148.4 
		39.6,143.4 48.1,143.4 	"/>
	<polygon class="st2" points="26.1,39.6 28.7,47.7 37.2,47.7 30.3,52.7 32.9,60.8 26.1,55.8 19.2,60.8 21.8,52.7 14.9,47.7 
		23.4,47.7 	"/>
	<polygon class="st2" points="50.6,14.6 53.2,22.7 61.7,22.7 54.9,27.7 57.5,35.8 50.6,30.8 43.7,35.8 46.4,27.7 39.5,22.7 48,22.7 
			"/>
	<polygon class="st2" points="85.6,5.2 88.2,13.3 96.7,13.3 89.8,18.3 92.5,26.4 85.6,21.4 78.7,26.4 81.4,18.3 74.5,13.3 83,13.3 	
		"/>
	<polygon class="st2" points="120.2,14.7 122.8,22.8 131.3,22.8 124.4,27.8 127.1,35.8 120.2,30.9 113.3,35.8 115.9,27.8 
		109.1,22.8 117.6,22.8 	"/>
	<polygon class="st2" points="145.7,40.2 148.3,48.2 156.8,48.2 149.9,53.2 152.5,61.3 145.7,56.3 138.8,61.3 141.4,53.2 
		134.5,48.2 143,48.2 	"/>
	<polygon class="st2" points="155.1,75.1 157.7,83.2 166.2,83.2 159.3,88.2 162,96.3 155.1,91.3 148.2,96.3 150.9,88.2 144,83.2 
		152.5,83.2 	"/>
	<polygon class="st2" points="145.6,110.2 148.3,118.3 156.8,118.3 149.9,123.3 152.5,131.4 145.6,126.4 138.8,131.4 141.4,123.3 
		134.5,118.3 143,118.3 	"/>
	<polygon class="st2" points="120.2,135.5 122.8,143.6 131.3,143.6 124.4,148.6 127,156.7 120.2,151.7 113.3,156.7 115.9,148.6 
		109,143.6 117.5,143.6 	"/>
	<polygon class="st2" points="85.7,144.8 88.3,152.9 96.8,152.9 89.9,157.9 92.6,166 85.7,161 78.8,166 81.4,157.9 74.6,152.9 
		83.1,152.9 	"/>
	<polygon class="st2" points="25.7,110.1 28.4,118.2 36.9,118.2 30,123.1 32.6,131.2 25.7,126.2 18.9,131.2 21.5,123.1 14.6,118.2 
		23.1,118.2 	"/>
	<polygon class="st2" points="16.2,74.5 18.8,82.7 27.4,82.7 20.5,87.7 23.1,95.9 16.2,90.8 9.2,95.9 11.9,87.7 5,82.7 13.5,82.7 	
		"/>
</g>
<g>
	<path id="XMLID_11_" class="st1" d="M85.8,93.5c-7.6,0-13.9-2.6-18.9-7.8c-4.9-5.2-7.4-11.6-7.4-19.2c0-7.7,2.5-14,7.4-19.1
		c4.9-5.1,11.2-7.6,18.8-7.6c7.6,0,13.9,2.6,18.7,7.8c4.8,5.2,7.2,11.6,7.2,19.2c0,7.6-2.4,14-7.2,19C99.6,90.9,93.5,93.5,85.8,93.5
		"/>
	<path id="XMLID_10_" class="st1" d="M59.6,131c0-7.7,2.5-14,7.4-19.1c4.9-5.1,11.2-7.6,18.9-7.6c7.6,0,13.9,2.6,18.6,7.8
		c4.8,5.2,7.2,11.6,7.2,19.2"/>
</g>
</svg>
